<svg width="1440" height="900" viewBox="0 0 1440 900" fill="none" xmlns="http://www.w3.org/2000/svg">
<g clip-path="url(#clip0)">
<rect width="1440" height="900" fill="white"/>
<path d="M131.359 123.594L124.609 131V149H108.156V80.75H124.609V110.844L130.328 102.172L145.047 80.75H165.391L142.328 110.938L165.391 149H145.891L131.359 123.594ZM165.531 123.172C165.531 118.109 166.516 113.609 168.484 109.672C170.453 105.703 173.281 102.656 176.969 100.531C180.656 98.4062 184.984 97.3438 189.953 97.3438C197.547 97.3438 203.531 99.7031 207.906 104.422C212.281 109.109 214.469 115.5 214.469 123.594V124.156C214.469 132.062 212.266 138.344 207.859 143C203.484 147.625 197.547 149.938 190.047 149.938C182.828 149.938 177.031 147.781 172.656 143.469C168.281 139.125 165.922 133.25 165.578 125.844L165.531 123.172ZM181.328 124.156C181.328 128.844 182.062 132.281 183.531 134.469C185 136.656 187.172 137.75 190.047 137.75C195.672 137.75 198.547 133.422 198.672 124.766V123.172C198.672 114.078 195.766 109.531 189.953 109.531C184.672 109.531 181.812 113.453 181.375 121.297L181.328 124.156ZM239.828 85.6719V98.2812H248.172V109.25H239.828V132.453C239.828 134.359 240.172 135.688 240.859 136.438C241.547 137.188 242.906 137.562 244.938 137.562C246.5 137.562 247.812 137.469 248.875 137.281V148.578C246.031 149.484 243.062 149.938 239.969 149.938C234.531 149.938 230.516 148.656 227.922 146.094C225.328 143.531 224.031 139.641 224.031 134.422V109.25H217.562V98.2812H224.031V85.6719H239.828ZM271.094 149H255.25V77H271.094V149ZM297.531 149H281.688V98.2812H297.531V149ZM280.75 85.2031C280.75 82.9531 281.562 81.1094 283.188 79.6719C284.812 78.2344 286.922 77.5156 289.516 77.5156C292.109 77.5156 294.219 78.2344 295.844 79.6719C297.469 81.1094 298.281 82.9531 298.281 85.2031C298.281 87.4531 297.469 89.2969 295.844 90.7344C294.219 92.1719 292.109 92.8906 289.516 92.8906C286.922 92.8906 284.812 92.1719 283.188 90.7344C281.562 89.2969 280.75 87.4531 280.75 85.2031ZM321.812 98.2812L322.328 104.234C325.828 99.6406 330.656 97.3438 336.812 97.3438C342.094 97.3438 346.031 98.9219 348.625 102.078C351.25 105.234 352.609 109.984 352.703 116.328V149H336.859V116.984C336.859 114.422 336.344 112.547 335.312 111.359C334.281 110.141 332.406 109.531 329.688 109.531C326.594 109.531 324.297 110.75 322.797 113.188V149H307V98.2812H321.812Z" fill="#000080"/>
<path d="M397.422 130.859C397.422 128.453 396.562 126.578 394.844 125.234C393.156 123.891 390.172 122.5 385.891 121.062C381.609 119.625 378.109 118.234 375.391 116.891C366.547 112.547 362.125 106.578 362.125 98.9844C362.125 95.2031 363.219 91.875 365.406 89C367.625 86.0938 370.75 83.8438 374.781 82.25C378.812 80.625 383.344 79.8125 388.375 79.8125C393.281 79.8125 397.672 80.6875 401.547 82.4375C405.453 84.1875 408.484 86.6875 410.641 89.9375C412.797 93.1562 413.875 96.8438 413.875 101H397.469C397.469 98.2188 396.609 96.0625 394.891 94.5312C393.203 93 390.906 92.2344 388 92.2344C385.062 92.2344 382.734 92.8906 381.016 94.2031C379.328 95.4844 378.484 97.125 378.484 99.125C378.484 100.875 379.422 102.469 381.297 103.906C383.172 105.312 386.469 106.781 391.188 108.312C395.906 109.812 399.781 111.438 402.812 113.188C410.188 117.438 413.875 123.297 413.875 130.766C413.875 136.734 411.625 141.422 407.125 144.828C402.625 148.234 396.453 149.938 388.609 149.938C383.078 149.938 378.062 148.953 373.562 146.984C369.094 144.984 365.719 142.266 363.438 138.828C361.188 135.359 360.062 131.375 360.062 126.875H376.562C376.562 130.531 377.5 133.234 379.375 134.984C381.281 136.703 384.359 137.562 388.609 137.562C391.328 137.562 393.469 136.984 395.031 135.828C396.625 134.641 397.422 132.984 397.422 130.859ZM439.984 85.6719V98.2812H448.328V109.25H439.984V132.453C439.984 134.359 440.328 135.688 441.016 136.438C441.703 137.188 443.062 137.562 445.094 137.562C446.656 137.562 447.969 137.469 449.031 137.281V148.578C446.188 149.484 443.219 149.938 440.125 149.938C434.688 149.938 430.672 148.656 428.078 146.094C425.484 143.531 424.188 139.641 424.188 134.422V109.25H417.719V98.2812H424.188V85.6719H439.984ZM485.266 112.578L480.062 112.203C475.094 112.203 471.906 113.766 470.5 116.891V149H454.703V98.2812H469.516L470.031 104.797C472.688 99.8281 476.391 97.3438 481.141 97.3438C482.828 97.3438 484.297 97.5312 485.547 97.9062L485.266 112.578ZM514.562 149.938C506.781 149.938 500.484 147.625 495.672 143C490.859 138.344 488.453 132.297 488.453 124.859V123.547C488.453 118.359 489.406 113.781 491.312 109.812C493.25 105.844 496.062 102.781 499.75 100.625C503.438 98.4375 507.812 97.3438 512.875 97.3438C520 97.3438 525.625 99.5625 529.75 104C533.875 108.406 535.938 114.562 535.938 122.469V128.609H504.531C505.094 131.453 506.328 133.688 508.234 135.312C510.141 136.938 512.609 137.75 515.641 137.75C520.641 137.75 524.547 136 527.359 132.5L534.578 141.031C532.609 143.75 529.812 145.922 526.188 147.547C522.594 149.141 518.719 149.938 514.562 149.938ZM512.781 109.531C508.156 109.531 505.406 112.594 504.531 118.719H520.469V117.5C520.531 114.969 519.891 113.016 518.547 111.641C517.203 110.234 515.281 109.531 512.781 109.531ZM570.906 149C570.344 147.969 569.844 146.453 569.406 144.453C566.5 148.109 562.438 149.938 557.219 149.938C552.438 149.938 548.375 148.5 545.031 145.625C541.688 142.719 540.016 139.078 540.016 134.703C540.016 129.203 542.047 125.047 546.109 122.234C550.172 119.422 556.078 118.016 563.828 118.016H568.703V115.344C568.703 110.688 566.688 108.359 562.656 108.359C558.906 108.359 557.031 110.203 557.031 113.891H541.234C541.234 108.984 543.312 105 547.469 101.938C551.656 98.875 556.984 97.3438 563.453 97.3438C569.922 97.3438 575.031 98.9219 578.781 102.078C582.531 105.234 584.453 109.562 584.547 115.062V137.516C584.609 142.172 585.328 145.734 586.703 148.203V149H570.906ZM561.016 138.688C562.984 138.688 564.609 138.266 565.891 137.422C567.203 136.578 568.141 135.625 568.703 134.562V126.453H564.109C558.609 126.453 555.859 128.922 555.859 133.859C555.859 135.297 556.344 136.469 557.312 137.375C558.281 138.25 559.516 138.688 561.016 138.688ZM608.266 98.2812L608.781 104.234C612.375 99.6406 617.203 97.3438 623.266 97.3438C629.672 97.3438 634 99.8906 636.25 104.984C639.688 99.8906 644.656 97.3438 651.156 97.3438C661.438 97.3438 666.719 103.562 667 116V149H651.156V116.984C651.156 114.391 650.719 112.5 649.844 111.312C648.969 110.125 647.375 109.531 645.062 109.531C641.938 109.531 639.609 110.922 638.078 113.703L638.125 114.359V149H622.281V117.078C622.281 114.422 621.859 112.5 621.016 111.312C620.172 110.125 618.562 109.531 616.188 109.531C613.156 109.531 610.844 110.922 609.25 113.703V149H593.453V98.2812H608.266Z" fill="black"/>
<path d="M131.359 282.594L124.609 290V308H108.156V239.75H124.609V269.844L130.328 261.172L145.047 239.75H165.391L142.328 269.938L165.391 308H145.891L131.359 282.594ZM165.531 282.172C165.531 277.109 166.516 272.609 168.484 268.672C170.453 264.703 173.281 261.656 176.969 259.531C180.656 257.406 184.984 256.344 189.953 256.344C197.547 256.344 203.531 258.703 207.906 263.422C212.281 268.109 214.469 274.5 214.469 282.594V283.156C214.469 291.062 212.266 297.344 207.859 302C203.484 306.625 197.547 308.938 190.047 308.938C182.828 308.938 177.031 306.781 172.656 302.469C168.281 298.125 165.922 292.25 165.578 284.844L165.531 282.172ZM181.328 283.156C181.328 287.844 182.062 291.281 183.531 293.469C185 295.656 187.172 296.75 190.047 296.75C195.672 296.75 198.547 292.422 198.672 283.766V282.172C198.672 273.078 195.766 268.531 189.953 268.531C184.672 268.531 181.812 272.453 181.375 280.297L181.328 283.156ZM239.828 244.672V257.281H248.172V268.25H239.828V291.453C239.828 293.359 240.172 294.688 240.859 295.438C241.547 296.188 242.906 296.562 244.938 296.562C246.5 296.562 247.812 296.469 248.875 296.281V307.578C246.031 308.484 243.062 308.938 239.969 308.938C234.531 308.938 230.516 307.656 227.922 305.094C225.328 302.531 224.031 298.641 224.031 293.422V268.25H217.562V257.281H224.031V244.672H239.828ZM271.094 308H255.25V236H271.094V308ZM297.531 308H281.688V257.281H297.531V308ZM280.75 244.203C280.75 241.953 281.562 240.109 283.188 238.672C284.812 237.234 286.922 236.516 289.516 236.516C292.109 236.516 294.219 237.234 295.844 238.672C297.469 240.109 298.281 241.953 298.281 244.203C298.281 246.453 297.469 248.297 295.844 249.734C294.219 251.172 292.109 251.891 289.516 251.891C286.922 251.891 284.812 251.172 283.188 249.734C281.562 248.297 280.75 246.453 280.75 244.203ZM321.812 257.281L322.328 263.234C325.828 258.641 330.656 256.344 336.812 256.344C342.094 256.344 346.031 257.922 348.625 261.078C351.25 264.234 352.609 268.984 352.703 275.328V308H336.859V275.984C336.859 273.422 336.344 271.547 335.312 270.359C334.281 269.141 332.406 268.531 329.688 268.531C326.594 268.531 324.297 269.75 322.797 272.188V308H307V257.281H321.812Z" fill="#000080"/>
<path d="M397.422 289.859C397.422 287.453 396.562 285.578 394.844 284.234C393.156 282.891 390.172 281.5 385.891 280.062C381.609 278.625 378.109 277.234 375.391 275.891C366.547 271.547 362.125 265.578 362.125 257.984C362.125 254.203 363.219 250.875 365.406 248C367.625 245.094 370.75 242.844 374.781 241.25C378.812 239.625 383.344 238.812 388.375 238.812C393.281 238.812 397.672 239.688 401.547 241.438C405.453 243.188 408.484 245.688 410.641 248.938C412.797 252.156 413.875 255.844 413.875 260H397.469C397.469 257.219 396.609 255.062 394.891 253.531C393.203 252 390.906 251.234 388 251.234C385.062 251.234 382.734 251.891 381.016 253.203C379.328 254.484 378.484 256.125 378.484 258.125C378.484 259.875 379.422 261.469 381.297 262.906C383.172 264.312 386.469 265.781 391.188 267.312C395.906 268.812 399.781 270.438 402.812 272.188C410.188 276.438 413.875 282.297 413.875 289.766C413.875 295.734 411.625 300.422 407.125 303.828C402.625 307.234 396.453 308.938 388.609 308.938C383.078 308.938 378.062 307.953 373.562 305.984C369.094 303.984 365.719 301.266 363.438 297.828C361.188 294.359 360.062 290.375 360.062 285.875H376.562C376.562 289.531 377.5 292.234 379.375 293.984C381.281 295.703 384.359 296.562 388.609 296.562C391.328 296.562 393.469 295.984 395.031 294.828C396.625 293.641 397.422 291.984 397.422 289.859ZM439.984 244.672V257.281H448.328V268.25H439.984V291.453C439.984 293.359 440.328 294.688 441.016 295.438C441.703 296.188 443.062 296.562 445.094 296.562C446.656 296.562 447.969 296.469 449.031 296.281V307.578C446.188 308.484 443.219 308.938 440.125 308.938C434.688 308.938 430.672 307.656 428.078 305.094C425.484 302.531 424.188 298.641 424.188 293.422V268.25H417.719V257.281H424.188V244.672H439.984ZM485.266 271.578L480.062 271.203C475.094 271.203 471.906 272.766 470.5 275.891V308H454.703V257.281H469.516L470.031 263.797C472.688 258.828 476.391 256.344 481.141 256.344C482.828 256.344 484.297 256.531 485.547 256.906L485.266 271.578ZM514.562 308.938C506.781 308.938 500.484 306.625 495.672 302C490.859 297.344 488.453 291.297 488.453 283.859V282.547C488.453 277.359 489.406 272.781 491.312 268.812C493.25 264.844 496.062 261.781 499.75 259.625C503.438 257.438 507.812 256.344 512.875 256.344C520 256.344 525.625 258.562 529.75 263C533.875 267.406 535.938 273.562 535.938 281.469V287.609H504.531C505.094 290.453 506.328 292.688 508.234 294.312C510.141 295.938 512.609 296.75 515.641 296.75C520.641 296.75 524.547 295 527.359 291.5L534.578 300.031C532.609 302.75 529.812 304.922 526.188 306.547C522.594 308.141 518.719 308.938 514.562 308.938ZM512.781 268.531C508.156 268.531 505.406 271.594 504.531 277.719H520.469V276.5C520.531 273.969 519.891 272.016 518.547 270.641C517.203 269.234 515.281 268.531 512.781 268.531ZM570.906 308C570.344 306.969 569.844 305.453 569.406 303.453C566.5 307.109 562.438 308.938 557.219 308.938C552.438 308.938 548.375 307.5 545.031 304.625C541.688 301.719 540.016 298.078 540.016 293.703C540.016 288.203 542.047 284.047 546.109 281.234C550.172 278.422 556.078 277.016 563.828 277.016H568.703V274.344C568.703 269.688 566.688 267.359 562.656 267.359C558.906 267.359 557.031 269.203 557.031 272.891H541.234C541.234 267.984 543.312 264 547.469 260.938C551.656 257.875 556.984 256.344 563.453 256.344C569.922 256.344 575.031 257.922 578.781 261.078C582.531 264.234 584.453 268.562 584.547 274.062V296.516C584.609 301.172 585.328 304.734 586.703 307.203V308H570.906ZM561.016 297.688C562.984 297.688 564.609 297.266 565.891 296.422C567.203 295.578 568.141 294.625 568.703 293.562V285.453H564.109C558.609 285.453 555.859 287.922 555.859 292.859C555.859 294.297 556.344 295.469 557.312 296.375C558.281 297.25 559.516 297.688 561.016 297.688ZM608.266 257.281L608.781 263.234C612.375 258.641 617.203 256.344 623.266 256.344C629.672 256.344 634 258.891 636.25 263.984C639.688 258.891 644.656 256.344 651.156 256.344C661.438 256.344 666.719 262.562 667 275V308H651.156V275.984C651.156 273.391 650.719 271.5 649.844 270.312C648.969 269.125 647.375 268.531 645.062 268.531C641.938 268.531 639.609 269.922 638.078 272.703L638.125 273.359V308H622.281V276.078C622.281 273.422 621.859 271.5 621.016 270.312C620.172 269.125 618.562 268.531 616.188 268.531C613.156 268.531 610.844 269.922 609.25 272.703V308H593.453V257.281H608.266Z" fill="black"/>
<path d="M742.984 279.078H717.109V295.344H747.672V308H700.656V239.75H747.766V252.453H717.109V266.844H742.984V279.078ZM774.203 271.25L781.562 257.281H797.969L784.609 281.984L798.625 308H782.125L774.156 293L766.328 308H749.734L763.797 281.984L750.484 257.281H767.078L774.203 271.25ZM821.453 244.672V257.281H829.797V268.25H821.453V291.453C821.453 293.359 821.797 294.688 822.484 295.438C823.172 296.188 824.531 296.562 826.562 296.562C828.125 296.562 829.438 296.469 830.5 296.281V307.578C827.656 308.484 824.688 308.938 821.594 308.938C816.156 308.938 812.141 307.656 809.547 305.094C806.953 302.531 805.656 298.641 805.656 293.422V268.25H799.188V257.281H805.656V244.672H821.453ZM860.594 308.938C852.812 308.938 846.516 306.625 841.703 302C836.891 297.344 834.484 291.297 834.484 283.859V282.547C834.484 277.359 835.438 272.781 837.344 268.812C839.281 264.844 842.094 261.781 845.781 259.625C849.469 257.438 853.844 256.344 858.906 256.344C866.031 256.344 871.656 258.562 875.781 263C879.906 267.406 881.969 273.562 881.969 281.469V287.609H850.562C851.125 290.453 852.359 292.688 854.266 294.312C856.172 295.938 858.641 296.75 861.672 296.75C866.672 296.75 870.578 295 873.391 291.5L880.609 300.031C878.641 302.75 875.844 304.922 872.219 306.547C868.625 308.141 864.75 308.938 860.594 308.938ZM858.812 268.531C854.188 268.531 851.438 271.594 850.562 277.719H866.5V276.5C866.562 273.969 865.922 272.016 864.578 270.641C863.234 269.234 861.312 268.531 858.812 268.531ZM902.875 257.281L903.391 263.234C906.891 258.641 911.719 256.344 917.875 256.344C923.156 256.344 927.094 257.922 929.688 261.078C932.312 264.234 933.672 268.984 933.766 275.328V308H917.922V275.984C917.922 273.422 917.406 271.547 916.375 270.359C915.344 269.141 913.469 268.531 910.75 268.531C907.656 268.531 905.359 269.75 903.859 272.188V308H888.062V257.281H902.875ZM940.562 282.266C940.562 274.234 942.297 267.906 945.766 263.281C949.234 258.656 954.078 256.344 960.297 256.344C964.828 256.344 968.641 258.125 971.734 261.688V236H987.578V308H973.375L972.578 302.562C969.328 306.812 965.203 308.938 960.203 308.938C954.172 308.938 949.391 306.625 945.859 302C942.328 297.375 940.562 290.797 940.562 282.266ZM956.359 283.25C956.359 292.25 958.984 296.75 964.234 296.75C967.734 296.75 970.234 295.281 971.734 292.344V273.031C970.297 270.031 967.828 268.531 964.328 268.531C959.453 268.531 956.812 272.469 956.406 280.344L956.359 283.25ZM1021.09 308.938C1013.31 308.938 1007.02 306.625 1002.2 302C997.391 297.344 994.984 291.297 994.984 283.859V282.547C994.984 277.359 995.938 272.781 997.844 268.812C999.781 264.844 1002.59 261.781 1006.28 259.625C1009.97 257.438 1014.34 256.344 1019.41 256.344C1026.53 256.344 1032.16 258.562 1036.28 263C1040.41 267.406 1042.47 273.562 1042.47 281.469V287.609H1011.06C1011.62 290.453 1012.86 292.688 1014.77 294.312C1016.67 295.938 1019.14 296.75 1022.17 296.75C1027.17 296.75 1031.08 295 1033.89 291.5L1041.11 300.031C1039.14 302.75 1036.34 304.922 1032.72 306.547C1029.12 308.141 1025.25 308.938 1021.09 308.938ZM1019.31 268.531C1014.69 268.531 1011.94 271.594 1011.06 277.719H1027V276.5C1027.06 273.969 1026.42 272.016 1025.08 270.641C1023.73 269.234 1021.81 268.531 1019.31 268.531ZM1046.88 282.266C1046.88 274.234 1048.61 267.906 1052.08 263.281C1055.55 258.656 1060.39 256.344 1066.61 256.344C1071.14 256.344 1074.95 258.125 1078.05 261.688V236H1093.89V308H1079.69L1078.89 302.562C1075.64 306.812 1071.52 308.938 1066.52 308.938C1060.48 308.938 1055.7 306.625 1052.17 302C1048.64 297.375 1046.88 290.797 1046.88 282.266ZM1062.67 283.25C1062.67 292.25 1065.3 296.75 1070.55 296.75C1074.05 296.75 1076.55 295.281 1078.05 292.344V273.031C1076.61 270.031 1074.14 268.531 1070.64 268.531C1065.77 268.531 1063.12 272.469 1062.72 280.344L1062.67 283.25Z" fill="#808000"/>
<rect x="108" y="326" width="40" height="40" fill="black"/>
<rect x="148" y="326" width="40" height="40" fill="#000080"/>
<rect x="188" y="326" width="40" height="40" fill="#1500FF"/>
<rect x="228" y="326" width="40" height="40" fill="#6A027E"/>
<rect x="268" y="326" width="40" height="40" fill="#007F01"/>
<rect x="308" y="326" width="40" height="40" fill="#808000"/>
<rect x="-43" y="410" width="1483" height="490" fill="#272822"/>
<rect x="268" y="604" width="40" height="40" fill="#BABABA"/>
<rect x="188" y="604" width="40" height="40" fill="#789667"/>
<rect x="228" y="604" width="40" height="40" fill="#FFC662"/>
<rect x="228" y="773" width="40" height="40" fill="#FFC662"/>
<rect x="268" y="773" width="40" height="40" fill="#BABABA"/>
<rect x="308" y="773" width="40" height="40" fill="#9876AA"/>
<rect x="108" y="773" width="40" height="40" fill="#CC7832"/>
<rect x="148" y="773" width="40" height="40" fill="#A9B7C6"/>
<rect x="188" y="773" width="40" height="40" fill="#789667"/>
<rect x="108" y="604" width="40" height="40" fill="#CC7832"/>
<rect x="148" y="604" width="40" height="40" fill="#A9B7C6"/>
<path d="M131.359 731.594L124.609 739V757H108.156V688.75H124.609V718.844L130.328 710.172L145.047 688.75H165.391L142.328 718.938L165.391 757H145.891L131.359 731.594ZM165.531 731.172C165.531 726.109 166.516 721.609 168.484 717.672C170.453 713.703 173.281 710.656 176.969 708.531C180.656 706.406 184.984 705.344 189.953 705.344C197.547 705.344 203.531 707.703 207.906 712.422C212.281 717.109 214.469 723.5 214.469 731.594V732.156C214.469 740.062 212.266 746.344 207.859 751C203.484 755.625 197.547 757.938 190.047 757.938C182.828 757.938 177.031 755.781 172.656 751.469C168.281 747.125 165.922 741.25 165.578 733.844L165.531 731.172ZM181.328 732.156C181.328 736.844 182.062 740.281 183.531 742.469C185 744.656 187.172 745.75 190.047 745.75C195.672 745.75 198.547 741.422 198.672 732.766V731.172C198.672 722.078 195.766 717.531 189.953 717.531C184.672 717.531 181.812 721.453 181.375 729.297L181.328 732.156ZM239.828 693.672V706.281H248.172V717.25H239.828V740.453C239.828 742.359 240.172 743.688 240.859 744.438C241.547 745.188 242.906 745.562 244.938 745.562C246.5 745.562 247.812 745.469 248.875 745.281V756.578C246.031 757.484 243.062 757.938 239.969 757.938C234.531 757.938 230.516 756.656 227.922 754.094C225.328 751.531 224.031 747.641 224.031 742.422V717.25H217.562V706.281H224.031V693.672H239.828ZM271.094 757H255.25V685H271.094V757ZM297.531 757H281.688V706.281H297.531V757ZM280.75 693.203C280.75 690.953 281.562 689.109 283.188 687.672C284.812 686.234 286.922 685.516 289.516 685.516C292.109 685.516 294.219 686.234 295.844 687.672C297.469 689.109 298.281 690.953 298.281 693.203C298.281 695.453 297.469 697.297 295.844 698.734C294.219 700.172 292.109 700.891 289.516 700.891C286.922 700.891 284.812 700.172 283.188 698.734C281.562 697.297 280.75 695.453 280.75 693.203ZM321.812 706.281L322.328 712.234C325.828 707.641 330.656 705.344 336.812 705.344C342.094 705.344 346.031 706.922 348.625 710.078C351.25 713.234 352.609 717.984 352.703 724.328V757H336.859V724.984C336.859 722.422 336.344 720.547 335.312 719.359C334.281 718.141 332.406 717.531 329.688 717.531C326.594 717.531 324.297 718.75 322.797 721.188V757H307V706.281H321.812Z" fill="#CC7832"/>
<path d="M397.422 738.859C397.422 736.453 396.562 734.578 394.844 733.234C393.156 731.891 390.172 730.5 385.891 729.062C381.609 727.625 378.109 726.234 375.391 724.891C366.547 720.547 362.125 714.578 362.125 706.984C362.125 703.203 363.219 699.875 365.406 697C367.625 694.094 370.75 691.844 374.781 690.25C378.812 688.625 383.344 687.812 388.375 687.812C393.281 687.812 397.672 688.688 401.547 690.438C405.453 692.188 408.484 694.688 410.641 697.938C412.797 701.156 413.875 704.844 413.875 709H397.469C397.469 706.219 396.609 704.062 394.891 702.531C393.203 701 390.906 700.234 388 700.234C385.062 700.234 382.734 700.891 381.016 702.203C379.328 703.484 378.484 705.125 378.484 707.125C378.484 708.875 379.422 710.469 381.297 711.906C383.172 713.312 386.469 714.781 391.188 716.312C395.906 717.812 399.781 719.438 402.812 721.188C410.188 725.438 413.875 731.297 413.875 738.766C413.875 744.734 411.625 749.422 407.125 752.828C402.625 756.234 396.453 757.938 388.609 757.938C383.078 757.938 378.062 756.953 373.562 754.984C369.094 752.984 365.719 750.266 363.438 746.828C361.188 743.359 360.062 739.375 360.062 734.875H376.562C376.562 738.531 377.5 741.234 379.375 742.984C381.281 744.703 384.359 745.562 388.609 745.562C391.328 745.562 393.469 744.984 395.031 743.828C396.625 742.641 397.422 740.984 397.422 738.859ZM439.984 693.672V706.281H448.328V717.25H439.984V740.453C439.984 742.359 440.328 743.688 441.016 744.438C441.703 745.188 443.062 745.562 445.094 745.562C446.656 745.562 447.969 745.469 449.031 745.281V756.578C446.188 757.484 443.219 757.938 440.125 757.938C434.688 757.938 430.672 756.656 428.078 754.094C425.484 751.531 424.188 747.641 424.188 742.422V717.25H417.719V706.281H424.188V693.672H439.984ZM485.266 720.578L480.062 720.203C475.094 720.203 471.906 721.766 470.5 724.891V757H454.703V706.281H469.516L470.031 712.797C472.688 707.828 476.391 705.344 481.141 705.344C482.828 705.344 484.297 705.531 485.547 705.906L485.266 720.578ZM514.562 757.938C506.781 757.938 500.484 755.625 495.672 751C490.859 746.344 488.453 740.297 488.453 732.859V731.547C488.453 726.359 489.406 721.781 491.312 717.812C493.25 713.844 496.062 710.781 499.75 708.625C503.438 706.438 507.812 705.344 512.875 705.344C520 705.344 525.625 707.562 529.75 712C533.875 716.406 535.938 722.562 535.938 730.469V736.609H504.531C505.094 739.453 506.328 741.688 508.234 743.312C510.141 744.938 512.609 745.75 515.641 745.75C520.641 745.75 524.547 744 527.359 740.5L534.578 749.031C532.609 751.75 529.812 753.922 526.188 755.547C522.594 757.141 518.719 757.938 514.562 757.938ZM512.781 717.531C508.156 717.531 505.406 720.594 504.531 726.719H520.469V725.5C520.531 722.969 519.891 721.016 518.547 719.641C517.203 718.234 515.281 717.531 512.781 717.531ZM570.906 757C570.344 755.969 569.844 754.453 569.406 752.453C566.5 756.109 562.438 757.938 557.219 757.938C552.438 757.938 548.375 756.5 545.031 753.625C541.688 750.719 540.016 747.078 540.016 742.703C540.016 737.203 542.047 733.047 546.109 730.234C550.172 727.422 556.078 726.016 563.828 726.016H568.703V723.344C568.703 718.688 566.688 716.359 562.656 716.359C558.906 716.359 557.031 718.203 557.031 721.891H541.234C541.234 716.984 543.312 713 547.469 709.938C551.656 706.875 556.984 705.344 563.453 705.344C569.922 705.344 575.031 706.922 578.781 710.078C582.531 713.234 584.453 717.562 584.547 723.062V745.516C584.609 750.172 585.328 753.734 586.703 756.203V757H570.906ZM561.016 746.688C562.984 746.688 564.609 746.266 565.891 745.422C567.203 744.578 568.141 743.625 568.703 742.562V734.453H564.109C558.609 734.453 555.859 736.922 555.859 741.859C555.859 743.297 556.344 744.469 557.312 745.375C558.281 746.25 559.516 746.688 561.016 746.688ZM608.266 706.281L608.781 712.234C612.375 707.641 617.203 705.344 623.266 705.344C629.672 705.344 634 707.891 636.25 712.984C639.688 707.891 644.656 705.344 651.156 705.344C661.438 705.344 666.719 711.562 667 724V757H651.156V724.984C651.156 722.391 650.719 720.5 649.844 719.312C648.969 718.125 647.375 717.531 645.062 717.531C641.938 717.531 639.609 718.922 638.078 721.703L638.125 722.359V757H622.281V725.078C622.281 722.422 621.859 720.5 621.016 719.312C620.172 718.125 618.562 717.531 616.188 717.531C613.156 717.531 610.844 718.922 609.25 721.703V757H593.453V706.281H608.266ZM700.656 757V688.75H722.641C728.672 688.75 734.094 690.125 738.906 692.875C743.719 695.594 747.469 699.453 750.156 704.453C752.875 709.422 754.25 715 754.281 721.188V724.328C754.281 730.578 752.953 736.188 750.297 741.156C747.672 746.094 743.953 749.969 739.141 752.781C734.359 755.562 729.016 756.969 723.109 757H700.656ZM717.109 701.453V744.344H722.828C727.547 744.344 731.172 742.672 733.703 739.328C736.234 735.953 737.5 730.953 737.5 724.328V721.375C737.5 714.781 736.234 709.812 733.703 706.469C731.172 703.125 727.484 701.453 722.641 701.453H717.109ZM790.562 757C790 755.969 789.5 754.453 789.062 752.453C786.156 756.109 782.094 757.938 776.875 757.938C772.094 757.938 768.031 756.5 764.688 753.625C761.344 750.719 759.672 747.078 759.672 742.703C759.672 737.203 761.703 733.047 765.766 730.234C769.828 727.422 775.734 726.016 783.484 726.016H788.359V723.344C788.359 718.688 786.344 716.359 782.312 716.359C778.562 716.359 776.688 718.203 776.688 721.891H760.891C760.891 716.984 762.969 713 767.125 709.938C771.312 706.875 776.641 705.344 783.109 705.344C789.578 705.344 794.688 706.922 798.438 710.078C802.188 713.234 804.109 717.562 804.203 723.062V745.516C804.266 750.172 804.984 753.734 806.359 756.203V757H790.562ZM780.672 746.688C782.641 746.688 784.266 746.266 785.547 745.422C786.859 744.578 787.797 743.625 788.359 742.562V734.453H783.766C778.266 734.453 775.516 736.922 775.516 741.859C775.516 743.297 776 744.469 776.969 745.375C777.938 746.25 779.172 746.688 780.672 746.688ZM843.672 720.578L838.469 720.203C833.5 720.203 830.312 721.766 828.906 724.891V757H813.109V706.281H827.922L828.438 712.797C831.094 707.828 834.797 705.344 839.547 705.344C841.234 705.344 842.703 705.531 843.953 705.906L843.672 720.578ZM869.734 738.109L865.281 742.562V757H849.484V684.953H865.281V723.203L866.875 721.094L878.781 706.281H897.719L879.953 727.141L898.891 757H880.797L869.734 738.109Z" fill="#A9B7C6"/>
<path d="M968.828 728.078H942.953V744.344H973.516V757H926.5V688.75H973.609V701.453H942.953V715.844H968.828V728.078ZM1000.05 720.25L1007.41 706.281H1023.81L1010.45 730.984L1024.47 757H1007.97L1000 742L992.172 757H975.578L989.641 730.984L976.328 706.281H992.922L1000.05 720.25ZM1047.3 693.672V706.281H1055.64V717.25H1047.3V740.453C1047.3 742.359 1047.64 743.688 1048.33 744.438C1049.02 745.188 1050.38 745.562 1052.41 745.562C1053.97 745.562 1055.28 745.469 1056.34 745.281V756.578C1053.5 757.484 1050.53 757.938 1047.44 757.938C1042 757.938 1037.98 756.656 1035.39 754.094C1032.8 751.531 1031.5 747.641 1031.5 742.422V717.25H1025.03V706.281H1031.5V693.672H1047.3ZM1086.44 757.938C1078.66 757.938 1072.36 755.625 1067.55 751C1062.73 746.344 1060.33 740.297 1060.33 732.859V731.547C1060.33 726.359 1061.28 721.781 1063.19 717.812C1065.12 713.844 1067.94 710.781 1071.62 708.625C1075.31 706.438 1079.69 705.344 1084.75 705.344C1091.88 705.344 1097.5 707.562 1101.62 712C1105.75 716.406 1107.81 722.562 1107.81 730.469V736.609H1076.41C1076.97 739.453 1078.2 741.688 1080.11 743.312C1082.02 744.938 1084.48 745.75 1087.52 745.75C1092.52 745.75 1096.42 744 1099.23 740.5L1106.45 749.031C1104.48 751.75 1101.69 753.922 1098.06 755.547C1094.47 757.141 1090.59 757.938 1086.44 757.938ZM1084.66 717.531C1080.03 717.531 1077.28 720.594 1076.41 726.719H1092.34V725.5C1092.41 722.969 1091.77 721.016 1090.42 719.641C1089.08 718.234 1087.16 717.531 1084.66 717.531ZM1128.72 706.281L1129.23 712.234C1132.73 707.641 1137.56 705.344 1143.72 705.344C1149 705.344 1152.94 706.922 1155.53 710.078C1158.16 713.234 1159.52 717.984 1159.61 724.328V757H1143.77V724.984C1143.77 722.422 1143.25 720.547 1142.22 719.359C1141.19 718.141 1139.31 717.531 1136.59 717.531C1133.5 717.531 1131.2 718.75 1129.7 721.188V757H1113.91V706.281H1128.72ZM1166.41 731.266C1166.41 723.234 1168.14 716.906 1171.61 712.281C1175.08 707.656 1179.92 705.344 1186.14 705.344C1190.67 705.344 1194.48 707.125 1197.58 710.688V685H1213.42V757H1199.22L1198.42 751.562C1195.17 755.812 1191.05 757.938 1186.05 757.938C1180.02 757.938 1175.23 755.625 1171.7 751C1168.17 746.375 1166.41 739.797 1166.41 731.266ZM1182.2 732.25C1182.2 741.25 1184.83 745.75 1190.08 745.75C1193.58 745.75 1196.08 744.281 1197.58 741.344V722.031C1196.14 719.031 1193.67 717.531 1190.17 717.531C1185.3 717.531 1182.66 721.469 1182.25 729.344L1182.2 732.25ZM1246.94 757.938C1239.16 757.938 1232.86 755.625 1228.05 751C1223.23 746.344 1220.83 740.297 1220.83 732.859V731.547C1220.83 726.359 1221.78 721.781 1223.69 717.812C1225.62 713.844 1228.44 710.781 1232.12 708.625C1235.81 706.438 1240.19 705.344 1245.25 705.344C1252.38 705.344 1258 707.562 1262.12 712C1266.25 716.406 1268.31 722.562 1268.31 730.469V736.609H1236.91C1237.47 739.453 1238.7 741.688 1240.61 743.312C1242.52 744.938 1244.98 745.75 1248.02 745.75C1253.02 745.75 1256.92 744 1259.73 740.5L1266.95 749.031C1264.98 751.75 1262.19 753.922 1258.56 755.547C1254.97 757.141 1251.09 757.938 1246.94 757.938ZM1245.16 717.531C1240.53 717.531 1237.78 720.594 1236.91 726.719H1252.84V725.5C1252.91 722.969 1252.27 721.016 1250.92 719.641C1249.58 718.234 1247.66 717.531 1245.16 717.531ZM1272.72 731.266C1272.72 723.234 1274.45 716.906 1277.92 712.281C1281.39 707.656 1286.23 705.344 1292.45 705.344C1296.98 705.344 1300.8 707.125 1303.89 710.688V685H1319.73V757H1305.53L1304.73 751.562C1301.48 755.812 1297.36 757.938 1292.36 757.938C1286.33 757.938 1281.55 755.625 1278.02 751C1274.48 746.375 1272.72 739.797 1272.72 731.266ZM1288.52 732.25C1288.52 741.25 1291.14 745.75 1296.39 745.75C1299.89 745.75 1302.39 744.281 1303.89 741.344V722.031C1302.45 719.031 1299.98 717.531 1296.48 717.531C1291.61 717.531 1288.97 721.469 1288.56 729.344L1288.52 732.25Z" fill="#9876AA"/>
<path d="M131.359 559.594L124.609 567V585H108.156V516.75H124.609V546.844L130.328 538.172L145.047 516.75H165.391L142.328 546.938L165.391 585H145.891L131.359 559.594ZM165.531 559.172C165.531 554.109 166.516 549.609 168.484 545.672C170.453 541.703 173.281 538.656 176.969 536.531C180.656 534.406 184.984 533.344 189.953 533.344C197.547 533.344 203.531 535.703 207.906 540.422C212.281 545.109 214.469 551.5 214.469 559.594V560.156C214.469 568.062 212.266 574.344 207.859 579C203.484 583.625 197.547 585.938 190.047 585.938C182.828 585.938 177.031 583.781 172.656 579.469C168.281 575.125 165.922 569.25 165.578 561.844L165.531 559.172ZM181.328 560.156C181.328 564.844 182.062 568.281 183.531 570.469C185 572.656 187.172 573.75 190.047 573.75C195.672 573.75 198.547 569.422 198.672 560.766V559.172C198.672 550.078 195.766 545.531 189.953 545.531C184.672 545.531 181.812 549.453 181.375 557.297L181.328 560.156ZM239.828 521.672V534.281H248.172V545.25H239.828V568.453C239.828 570.359 240.172 571.688 240.859 572.438C241.547 573.188 242.906 573.562 244.938 573.562C246.5 573.562 247.812 573.469 248.875 573.281V584.578C246.031 585.484 243.062 585.938 239.969 585.938C234.531 585.938 230.516 584.656 227.922 582.094C225.328 579.531 224.031 575.641 224.031 570.422V545.25H217.562V534.281H224.031V521.672H239.828ZM271.094 585H255.25V513H271.094V585ZM297.531 585H281.688V534.281H297.531V585ZM280.75 521.203C280.75 518.953 281.562 517.109 283.188 515.672C284.812 514.234 286.922 513.516 289.516 513.516C292.109 513.516 294.219 514.234 295.844 515.672C297.469 517.109 298.281 518.953 298.281 521.203C298.281 523.453 297.469 525.297 295.844 526.734C294.219 528.172 292.109 528.891 289.516 528.891C286.922 528.891 284.812 528.172 283.188 526.734C281.562 525.297 280.75 523.453 280.75 521.203ZM321.812 534.281L322.328 540.234C325.828 535.641 330.656 533.344 336.812 533.344C342.094 533.344 346.031 534.922 348.625 538.078C351.25 541.234 352.609 545.984 352.703 552.328V585H336.859V552.984C336.859 550.422 336.344 548.547 335.312 547.359C334.281 546.141 332.406 545.531 329.688 545.531C326.594 545.531 324.297 546.75 322.797 549.188V585H307V534.281H321.812Z" fill="#CC7832"/>
<path d="M397.422 566.859C397.422 564.453 396.562 562.578 394.844 561.234C393.156 559.891 390.172 558.5 385.891 557.062C381.609 555.625 378.109 554.234 375.391 552.891C366.547 548.547 362.125 542.578 362.125 534.984C362.125 531.203 363.219 527.875 365.406 525C367.625 522.094 370.75 519.844 374.781 518.25C378.812 516.625 383.344 515.812 388.375 515.812C393.281 515.812 397.672 516.688 401.547 518.438C405.453 520.188 408.484 522.688 410.641 525.938C412.797 529.156 413.875 532.844 413.875 537H397.469C397.469 534.219 396.609 532.062 394.891 530.531C393.203 529 390.906 528.234 388 528.234C385.062 528.234 382.734 528.891 381.016 530.203C379.328 531.484 378.484 533.125 378.484 535.125C378.484 536.875 379.422 538.469 381.297 539.906C383.172 541.312 386.469 542.781 391.188 544.312C395.906 545.812 399.781 547.438 402.812 549.188C410.188 553.438 413.875 559.297 413.875 566.766C413.875 572.734 411.625 577.422 407.125 580.828C402.625 584.234 396.453 585.938 388.609 585.938C383.078 585.938 378.062 584.953 373.562 582.984C369.094 580.984 365.719 578.266 363.438 574.828C361.188 571.359 360.062 567.375 360.062 562.875H376.562C376.562 566.531 377.5 569.234 379.375 570.984C381.281 572.703 384.359 573.562 388.609 573.562C391.328 573.562 393.469 572.984 395.031 571.828C396.625 570.641 397.422 568.984 397.422 566.859ZM439.984 521.672V534.281H448.328V545.25H439.984V568.453C439.984 570.359 440.328 571.688 441.016 572.438C441.703 573.188 443.062 573.562 445.094 573.562C446.656 573.562 447.969 573.469 449.031 573.281V584.578C446.188 585.484 443.219 585.938 440.125 585.938C434.688 585.938 430.672 584.656 428.078 582.094C425.484 579.531 424.188 575.641 424.188 570.422V545.25H417.719V534.281H424.188V521.672H439.984ZM485.266 548.578L480.062 548.203C475.094 548.203 471.906 549.766 470.5 552.891V585H454.703V534.281H469.516L470.031 540.797C472.688 535.828 476.391 533.344 481.141 533.344C482.828 533.344 484.297 533.531 485.547 533.906L485.266 548.578ZM514.562 585.938C506.781 585.938 500.484 583.625 495.672 579C490.859 574.344 488.453 568.297 488.453 560.859V559.547C488.453 554.359 489.406 549.781 491.312 545.812C493.25 541.844 496.062 538.781 499.75 536.625C503.438 534.438 507.812 533.344 512.875 533.344C520 533.344 525.625 535.562 529.75 540C533.875 544.406 535.938 550.562 535.938 558.469V564.609H504.531C505.094 567.453 506.328 569.688 508.234 571.312C510.141 572.938 512.609 573.75 515.641 573.75C520.641 573.75 524.547 572 527.359 568.5L534.578 577.031C532.609 579.75 529.812 581.922 526.188 583.547C522.594 585.141 518.719 585.938 514.562 585.938ZM512.781 545.531C508.156 545.531 505.406 548.594 504.531 554.719H520.469V553.5C520.531 550.969 519.891 549.016 518.547 547.641C517.203 546.234 515.281 545.531 512.781 545.531ZM570.906 585C570.344 583.969 569.844 582.453 569.406 580.453C566.5 584.109 562.438 585.938 557.219 585.938C552.438 585.938 548.375 584.5 545.031 581.625C541.688 578.719 540.016 575.078 540.016 570.703C540.016 565.203 542.047 561.047 546.109 558.234C550.172 555.422 556.078 554.016 563.828 554.016H568.703V551.344C568.703 546.688 566.688 544.359 562.656 544.359C558.906 544.359 557.031 546.203 557.031 549.891H541.234C541.234 544.984 543.312 541 547.469 537.938C551.656 534.875 556.984 533.344 563.453 533.344C569.922 533.344 575.031 534.922 578.781 538.078C582.531 541.234 584.453 545.562 584.547 551.062V573.516C584.609 578.172 585.328 581.734 586.703 584.203V585H570.906ZM561.016 574.688C562.984 574.688 564.609 574.266 565.891 573.422C567.203 572.578 568.141 571.625 568.703 570.562V562.453H564.109C558.609 562.453 555.859 564.922 555.859 569.859C555.859 571.297 556.344 572.469 557.312 573.375C558.281 574.25 559.516 574.688 561.016 574.688ZM608.266 534.281L608.781 540.234C612.375 535.641 617.203 533.344 623.266 533.344C629.672 533.344 634 535.891 636.25 540.984C639.688 535.891 644.656 533.344 651.156 533.344C661.438 533.344 666.719 539.562 667 552V585H651.156V552.984C651.156 550.391 650.719 548.5 649.844 547.312C648.969 546.125 647.375 545.531 645.062 545.531C641.938 545.531 639.609 546.922 638.078 549.703L638.125 550.359V585H622.281V553.078C622.281 550.422 621.859 548.5 621.016 547.312C620.172 546.125 618.562 545.531 616.188 545.531C613.156 545.531 610.844 546.922 609.25 549.703V585H593.453V534.281H608.266ZM700.656 585V516.75H722.641C728.672 516.75 734.094 518.125 738.906 520.875C743.719 523.594 747.469 527.453 750.156 532.453C752.875 537.422 754.25 543 754.281 549.188V552.328C754.281 558.578 752.953 564.188 750.297 569.156C747.672 574.094 743.953 577.969 739.141 580.781C734.359 583.562 729.016 584.969 723.109 585H700.656ZM717.109 529.453V572.344H722.828C727.547 572.344 731.172 570.672 733.703 567.328C736.234 563.953 737.5 558.953 737.5 552.328V549.375C737.5 542.781 736.234 537.812 733.703 534.469C731.172 531.125 727.484 529.453 722.641 529.453H717.109ZM790.562 585C790 583.969 789.5 582.453 789.062 580.453C786.156 584.109 782.094 585.938 776.875 585.938C772.094 585.938 768.031 584.5 764.688 581.625C761.344 578.719 759.672 575.078 759.672 570.703C759.672 565.203 761.703 561.047 765.766 558.234C769.828 555.422 775.734 554.016 783.484 554.016H788.359V551.344C788.359 546.688 786.344 544.359 782.312 544.359C778.562 544.359 776.688 546.203 776.688 549.891H760.891C760.891 544.984 762.969 541 767.125 537.938C771.312 534.875 776.641 533.344 783.109 533.344C789.578 533.344 794.688 534.922 798.438 538.078C802.188 541.234 804.109 545.562 804.203 551.062V573.516C804.266 578.172 804.984 581.734 806.359 584.203V585H790.562ZM780.672 574.688C782.641 574.688 784.266 574.266 785.547 573.422C786.859 572.578 787.797 571.625 788.359 570.562V562.453H783.766C778.266 562.453 775.516 564.922 775.516 569.859C775.516 571.297 776 572.469 776.969 573.375C777.938 574.25 779.172 574.688 780.672 574.688ZM843.672 548.578L838.469 548.203C833.5 548.203 830.312 549.766 828.906 552.891V585H813.109V534.281H827.922L828.438 540.797C831.094 535.828 834.797 533.344 839.547 533.344C841.234 533.344 842.703 533.531 843.953 533.906L843.672 548.578ZM869.734 566.109L865.281 570.562V585H849.484V512.953H865.281V551.203L866.875 549.094L878.781 534.281H897.719L879.953 555.141L898.891 585H880.797L869.734 566.109Z" fill="#A9B7C6"/>
<rect x="108" y="166" width="40" height="40" fill="black"/>
<rect x="148" y="166" width="40" height="40" fill="#000080"/>
<rect x="188" y="166" width="40" height="40" fill="#1500FF"/>
<rect x="228" y="166" width="40" height="40" fill="#6A027E"/>
<rect x="268" y="166" width="40" height="40" fill="#007F01"/>
</g>
<defs>
<clipPath id="clip0">
<rect width="1440" height="900" fill="white"/>
</clipPath>
</defs>
</svg>
